<svg width="134" height="75" viewBox="0 0 134 75" fill="none" xmlns="http://www.w3.org/2000/svg">
<path d="M0 42.4244L3.63872 41.438L10.3212 66.0893C11.6494 70.9887 10.8301 73.8612 7.85295 74.6682L6.62902 75L5.47866 70.7564L6.7026 70.4247C7.26495 70.2722 7.425 69.8147 7.20539 69.0046L0 42.4244Z" fill="#49FF7C"/>
<path d="M14.3017 44.8271C14.1331 44.0048 13.7841 43.6684 13.2134 43.7854C12.6426 43.9025 12.4544 44.3492 12.623 45.1714L17.0249 66.6282C17.1935 67.4505 17.5425 67.7869 18.1132 67.6698C18.684 67.5527 18.8722 67.1061 18.7036 66.2839L14.3017 44.8271ZM21.9951 63.5685C23.0152 68.5411 22.0185 71.357 18.9968 71.9769C15.9751 72.5967 13.9502 70.4008 12.9301 65.4281L9.33152 47.8868C8.31139 42.9142 9.30814 40.0983 12.3298 39.4784C15.3515 38.8585 17.3764 41.0545 18.3965 46.0272L21.9951 63.5685Z" fill="#49FF7C"/>
<path d="M26.2641 42.766C26.1406 41.9358 25.8784 41.5707 25.4377 41.6363C24.997 41.7018 24.8524 42.1274 24.9759 42.9577L25.617 47.267C25.7993 48.4926 26.8894 50.2297 28.8532 52.4834C30.988 54.9541 32.2223 57.195 32.5105 59.1322L32.9222 61.8997C33.6692 66.9206 32.5879 69.6678 29.6725 70.1015C26.7571 70.5352 24.923 68.2218 24.176 63.2009L23.5055 58.6939L27.2345 58.1391L28.1991 64.6229C28.3226 65.4531 28.5848 65.8182 29.0255 65.7526C29.4662 65.6871 29.6108 65.2615 29.4873 64.4312L28.9462 60.794C28.6815 59.0149 27.5503 57.0011 25.5982 54.8265C23.4752 52.4348 22.2115 49.9962 21.8409 47.5055L21.541 45.4892C20.794 40.4683 21.8753 37.7212 24.7907 37.2874C27.7061 36.8537 29.5402 39.1671 30.2872 44.188L30.8048 47.6671L27.0758 48.2219L26.2641 42.766Z" fill="#49FF7C"/>
<path d="M38.3647 49.7663L40.0701 49.5983L38.6906 35.5966L42.4425 35.2269L45.6952 68.2423L41.9433 68.6119L40.5011 53.9738L38.7957 54.1418L40.2379 68.7799L36.486 69.1496L33.2333 36.1342L36.9852 35.7646L38.3647 49.7663Z" fill="#49FF7C"/>
<path d="M52.8729 67.7241L51.9844 34.5608L56.9523 34.4277L58.6684 47.2967L59.2316 52.9594L59.526 47.3137L60.5496 34.3313L65.6203 34.1955L66.5087 67.3588L63.0141 67.4524L62.541 49.792L62.224 55.8781L61.2325 67.5001L58.0805 67.5846L56.465 55.9124L55.9051 50.3696L56.3675 67.6305L52.8729 67.7241Z" fill="#49FF7C"/>
<path d="M73.3311 34.3327L69.5615 34.2755L69.0582 67.4469L72.8278 67.5041L73.3311 34.3327Z" fill="#49FF7C"/>
<path d="M79.4341 63.3399L83.6452 63.5346L83.4422 67.9266L75.4651 67.5579L76.9965 34.4181L80.7626 34.5922L79.4341 63.3399Z" fill="#49FF7C"/>
<path d="M89.444 63.9991L93.6445 64.3549L93.2734 68.736L85.3163 68.0619L88.1166 35.0051L91.8732 35.3233L89.444 63.9991Z" fill="#49FF7C"/>
<path d="M99.8825 60.0323L101.446 60.234L101.645 54.1339L101.896 50.5795L101.232 54.1209L99.8825 60.0323ZM93.9171 68.7741L101.899 36.3535L105.537 36.8226L105.032 70.2076L101.259 69.721L101.329 64.8938L98.7796 64.565L97.6902 69.2607L93.9171 68.7741Z" fill="#49FF7C"/>
<path d="M115.192 42.8043L113.44 52.317L114.418 52.4971C115.26 52.6523 115.759 52.2158 115.947 51.1937L117.135 44.747C117.323 43.725 116.979 43.1333 116.136 42.9781L115.192 42.8043ZM113.116 56.7279L112.644 56.641L109.98 71.1067L106.272 70.4238L112.281 37.7974L116.933 38.6541C120.27 39.2687 121.48 41.9708 120.596 46.7665L119.959 50.2256C119.416 53.1738 118.344 55.2117 116.708 56.3329L115.946 72.2056L112.17 71.5103L113.116 56.7279Z" fill="#49FF7C"/>
<path d="M129.83 47.2584C130.038 46.4451 129.871 45.99 129.307 45.8458L128.477 45.6338L122.443 69.2572L123.273 69.4693C123.838 69.6135 124.202 69.294 124.41 68.4808L129.83 47.2584ZM128.557 67.4774C127.301 72.3957 125.174 74.4926 122.185 73.7293L117.702 72.5843L125.912 40.4408L130.395 41.5858C133.383 42.3491 134.245 45.2093 132.989 50.1276L128.557 67.4774Z" fill="#49FF7C"/>
<path d="M70.7819 1.04418C71.0265 1.15234 71.4135 1.63691 71.5065 1.75345L71.5199 1.77016C71.5489 1.8061 71.5806 1.84134 71.6125 1.87668C71.6971 1.97067 71.7824 2.06535 71.8187 2.1759C71.9002 2.42159 71.9488 2.67884 71.9972 2.93535C72.0074 2.98966 72.0176 3.04393 72.0282 3.09806C72.0621 3.27041 72.1237 3.44309 72.3206 3.37389C72.4358 3.33309 72.5481 3.25507 72.5507 3.11275C72.5374 2.61462 72.2076 1.55373 71.9794 1.29847C71.6403 0.919161 71.2979 0.537242 70.9155 0.205593C70.757 0.0681672 70.494 0.0156126 70.2736 0.000597C70.0264 -0.0163772 69.8563 0.332899 70.028 0.501662C70.2478 0.718082 70.5043 0.921446 70.7819 1.04418Z" fill="#49FF7C"/>
<path d="M75.9791 19.9937L76.1725 20.091C76.8983 20.4561 77.7821 20.9007 78.3166 21.2129C78.3166 21.2129 78.1492 20.9248 77.5957 20.5908C77.5285 20.5501 77.4596 20.5141 77.3935 20.4796C77.2928 20.4271 77.1984 20.3779 77.1255 20.3201C76.7408 20.0908 76.0311 19.9573 75.9791 19.9937Z" fill="#49FF7C"/>
<path d="M76.5919 20.9312C77.3473 21.3121 77.9998 21.6754 78.5834 22.0164C78.5834 22.0164 78.6286 21.8322 78.2085 21.5283C78.1282 21.4703 78.0407 21.4266 77.9583 21.3855C77.8758 21.3443 77.7984 21.3056 77.7383 21.2577C77.3535 21.0284 76.6436 20.8947 76.5919 20.9312Z" fill="#49FF7C"/>
<path d="M74.0466 22.6931C73.8907 22.6025 73.7487 22.5201 73.6337 22.4567C73.8137 22.2093 75.6322 23.2721 75.8042 23.4641C75.5967 23.5931 74.6987 23.0717 74.0466 22.6931Z" fill="#49FF7C"/>
<path d="M73.1376 22.0036C73.0783 21.9839 73.0553 21.9502 73.0324 21.9165C73.0105 21.8843 72.9886 21.8522 72.935 21.8326C72.8001 22.0451 73.0186 22.1003 73.1376 22.0036Z" fill="#49FF7C"/>
<path fill-rule="evenodd" clip-rule="evenodd" d="M78.3265 19.9931C77.898 19.6999 77.1719 19.1522 77.1719 19.1522C76.9298 16.2447 74.1196 8.30146 66.4791 9.19326C66.3626 8.17546 66.2125 6.36706 66.2125 6.36706C66.2698 6.36706 66.4883 6.37727 66.8042 6.39204C67.8223 6.43965 69.8505 6.5345 70.7511 6.48718C71.0868 6.46955 72.3011 6.28251 71.9255 5.2559C71.6267 4.80346 70.2904 5.0485 68.881 5.30694C67.8744 5.49153 66.8305 5.68295 66.1008 5.63194L65.9827 4.03082C66.4145 3.90863 67.0064 3.95646 67.5912 4.00373C68.5718 4.08298 69.5326 4.16062 69.6852 3.43248C69.8182 2.30902 68.153 2.72937 66.7497 3.08363C66.4601 3.15674 66.1816 3.22704 65.9324 3.28037C65.9324 3.28037 65.8866 2.27889 65.7229 2.37715C65.4841 2.40195 65.619 3.29538 65.619 3.29538C65.619 3.29538 64.9862 3.11454 64.5163 2.94872C63.9769 2.7585 63.4058 2.69081 62.8564 2.6257C62.5894 2.59405 62.3275 2.56302 62.0769 2.51881C61.0029 2.43035 60.3585 3.0535 60.8764 3.89307C61.325 4.47055 62.9786 4.30715 64.3478 4.17186C64.8175 4.12545 65.2538 4.08234 65.5964 4.07358L65.6245 5.66002C65.1374 5.71039 64.6189 5.74354 64.0951 5.77703C63.2375 5.83187 62.3656 5.88762 61.5938 6.02137C60.6744 6.18067 59.7402 6.43169 58.8995 6.82862C57.8907 7.30488 57.3892 8.38013 58.4922 9.01372C59.3758 9.52792 62.5377 7.88165 63.4688 7.39683C63.6099 7.32335 63.6998 7.27654 63.7228 7.26799C64.2272 7.0803 64.9429 6.76366 65.5964 6.45323L65.8488 9.27323C61.0588 10.1099 57.2056 13.8804 58.237 22.139C59.5958 22.3298 60.9259 22.175 62.2449 22.0215C63.2459 21.9051 64.2404 21.7893 65.2363 21.826C68.8329 23.874 75.4705 26.2024 79.1962 24.0812C80.0818 23.5772 80.4229 21.4254 78.3265 19.9931ZM78.949 22.8744C78.2358 22.3274 77.4107 21.8749 76.5923 21.4519C76.2251 21.2606 76.136 21.2004 76.0727 21.1577C75.998 21.1073 75.9591 21.081 75.5425 20.8924C75.4069 20.9162 75.4973 21.1144 75.6693 21.2126C76.7431 21.6913 77.0567 21.8882 77.589 22.2224C77.8553 22.3895 78.1762 22.591 78.6744 22.8793C78.8064 22.9554 78.8229 23.1392 78.7086 23.2397C78.6722 23.272 78.6321 23.304 78.5895 23.336C78.5377 23.2026 78.3264 23.0735 78.1287 22.9527C77.9844 22.8645 77.8474 22.7808 77.785 22.7031C77.6519 22.6268 77.5265 22.5591 77.4049 22.4933C77.1691 22.366 76.9474 22.2461 76.7101 22.0868C76.6597 22.1194 76.5693 22.1393 76.4044 22.1393L76.4028 22.1392L76.4009 22.139C77.2132 22.5872 77.8922 22.9965 78.2704 23.2299C78.3882 23.3027 78.3836 23.4767 78.263 23.5433C78.2133 23.5707 78.1626 23.5972 78.1116 23.6223C76.8285 22.6104 75.1768 21.7773 73.6252 21.149C73.5797 21.1369 73.5413 21.1565 73.5162 21.226C73.5344 21.2432 73.5465 21.2597 73.5568 21.2738C73.5827 21.309 73.5978 21.3296 73.6701 21.3105C74.3344 21.6177 74.8184 21.8832 75.265 22.1282C75.7724 22.4066 76.2316 22.6585 76.852 22.9149C77.146 23.1793 77.5691 23.5449 77.8199 23.5805C77.847 23.6093 77.8782 23.6463 77.9125 23.6868L77.9286 23.7059C77.8357 23.7453 77.7437 23.7796 77.6569 23.8064C77.6282 23.8254 77.6005 23.8416 77.5731 23.8576L77.5507 23.8707C76.1998 22.8408 74.422 22.0251 72.7639 21.4316C72.7178 21.4212 72.68 21.4424 72.6581 21.5129C72.677 21.5294 72.6897 21.5455 72.7006 21.5592C72.7277 21.5933 72.7436 21.6134 72.8149 21.5913C73.4915 21.8709 73.986 22.1164 74.4424 22.343C74.9603 22.6001 75.4291 22.8328 76.0591 23.0634C76.3631 23.3154 76.8007 23.6631 77.0528 23.6886L77.055 23.6905C77.197 23.8322 77.1092 24.0757 76.9111 24.0946C76.6796 24.1167 76.4549 24.0783 76.1855 24.0323C75.9884 23.9987 75.7674 23.961 75.5025 23.9399C75.3902 23.9308 75.284 23.888 75.1923 23.8211C73.9586 22.9139 72.4425 22.1602 71.0116 21.5808C70.9661 21.5684 70.9277 21.5883 70.9025 21.6575C70.9209 21.6749 70.933 21.6915 70.9434 21.7057C70.9692 21.7409 70.9842 21.7615 71.0564 21.7424C71.72 22.0493 72.2037 22.3146 72.65 22.5594C73.1579 22.8379 73.6173 23.0899 74.2384 23.3465C74.322 23.4215 74.4156 23.5048 74.513 23.5861C74.6395 23.6915 74.5576 23.9004 74.3939 23.8877C74.3449 23.8838 74.2955 23.8795 74.2455 23.8749C74.1425 23.8655 74.0435 23.8299 73.9612 23.7669C72.7078 22.8134 69.9753 21.558 69.9137 21.7695C69.8601 21.9036 70.4887 22.1519 71.2092 22.4365C71.6724 22.6194 72.1735 22.8173 72.5558 23.0096C72.6128 23.0381 72.7574 23.1472 72.9422 23.2867C73.0915 23.3994 73.2674 23.5321 73.4442 23.6579C73.5003 23.6977 73.4661 23.7862 73.3984 23.7767C73.2393 23.7542 73.0773 23.7294 72.913 23.7019C72.2514 23.3151 71.2917 22.802 70.9483 22.6789C70.8616 22.6382 70.781 22.5885 70.7031 22.5404C70.481 22.4033 70.2817 22.2803 70.0308 22.4236C70.0138 22.5473 70.5498 22.7827 71.161 23.0511C71.5563 23.2247 71.983 23.4121 72.3118 23.5919C70.453 23.2214 68.4437 22.5506 67.2397 21.6174C67.8048 21.5583 68.3795 21.479 68.9875 21.354C69.9447 21.1603 72.1076 20.4223 73.2627 20.0281C73.6784 19.8863 73.9637 19.789 74.0151 19.7776C74.1664 19.7456 74.6153 19.873 75.1023 20.0717C75.2962 20.1426 75.467 20.1246 75.4592 20.0371C75.4588 20.0326 75.2855 19.9639 75.0896 19.8863L75.0879 19.8856L75.0859 19.8849C74.9484 19.8304 74.8002 19.7717 74.6931 19.7277C74.7705 19.7075 75.264 19.6128 75.5079 19.6138C76.1592 19.6004 76.8472 19.8139 77.4304 20.1677L77.4449 20.1769C77.6846 20.3241 77.9057 20.4945 78.099 20.6828C79.2187 21.809 78.9959 22.6882 78.9544 22.8519C78.9517 22.8624 78.9498 22.87 78.949 22.8744ZM64.3914 11.7495L64.3264 11.8207C64.1913 11.9685 64.0551 12.1174 63.938 12.2777C63.6937 13.0973 63.544 13.931 63.4385 14.7725L63.4365 14.7794L63.4352 14.8009C63.295 15.9345 63.2437 17.0836 63.1922 18.2381C63.1596 18.9701 63.1268 19.7044 63.0712 20.4383C62.7246 20.6473 62.3271 20.6288 61.9409 20.6109C61.3866 20.5852 60.8556 20.5606 60.5321 21.2113C59.389 21.3402 58.8401 21.0184 58.9243 20.4125C58.972 20.2763 59.3109 20.2971 59.6745 20.3194C60.0718 20.3437 60.4988 20.3698 60.6079 20.1951C60.6638 20.044 60.5114 19.9585 60.4614 19.9519C60.4275 19.9474 60.3933 19.9441 60.3588 19.9418C60.3256 19.9066 60.2688 19.8792 60.1936 19.8798C59.978 19.8821 59.3823 19.8586 59.1886 19.8181C58.9685 19.7721 58.7749 19.5589 58.7946 19.3399C58.7946 19.3399 60.3601 19.6556 61.0126 19.6487C61.2705 19.6458 61.1814 19.3807 60.9216 19.3833C60.3514 19.3895 59.8705 19.2704 59.3623 19.0438L59.3648 19.0422C59.5494 18.94 59.7598 18.8992 59.9693 18.9162C60.2062 18.9355 60.4456 18.9355 60.6854 18.9328C60.8942 18.9302 60.8219 18.7161 60.6121 18.7181C60.0519 18.7243 58.8562 18.2627 58.8562 18.2627C58.8569 18.0982 59.0128 17.979 59.169 18.0247C59.6001 18.1507 60.2755 18.2016 60.7257 18.1971C60.9342 18.1948 60.8622 17.9803 60.6521 17.9823C60.0906 17.9885 59.6369 17.8462 59.1189 17.5769V17.5736C59.1331 17.4257 59.2742 17.3291 59.4174 17.3647C59.8183 17.4639 60.2339 17.4652 60.6499 17.4613C60.858 17.459 60.7864 17.2442 60.5763 17.2465C60.0742 17.2517 59.4045 17.1104 58.9511 16.8937C58.9511 16.8937 59.1176 16.6452 59.2645 16.6733C59.6479 16.7464 60.4601 16.8499 60.8868 16.6368C60.7568 16.6157 60.6158 16.5899 60.4678 16.5627C60.109 16.497 59.7078 16.4234 59.3151 16.3906C59.3184 16.3773 59.3216 16.3635 59.3245 16.3498C59.351 16.2405 59.4568 16.1716 59.5669 16.1879C60.1339 16.2712 60.6596 16.2894 61.1459 16.1599C61.2259 16.1383 61.2143 16.0195 61.1317 16.0126C60.5941 15.9685 60.1203 15.8813 59.6518 15.7951C59.5068 15.7684 59.3622 15.7418 59.2164 15.7166C59.2241 15.6915 59.2321 15.6665 59.2401 15.6416L59.2461 15.6229C59.2935 15.4779 59.7108 15.4163 59.8612 15.4316C60.4427 15.4917 60.7328 15.4597 61.142 15.3722C60.6825 15.2903 60.3994 15.2741 60.033 15.2532C59.9219 15.2468 59.8032 15.24 59.6695 15.2308L59.6714 15.2259C59.7737 14.9553 60.0471 14.7924 60.3317 14.8297C60.5095 14.8528 60.6715 14.8349 60.8109 14.6743C60.6237 14.7197 60.0354 14.6394 59.6533 14.5819C60.5808 12.1859 62.8172 10.3599 64.9868 9.9744L64.3914 11.7495ZM59.9328 7.65318C59.9171 7.63186 59.9008 7.61024 59.8843 7.58843C59.6855 7.32496 59.464 7.03144 60.0261 6.85931C60.3081 7.05118 60.5079 7.01059 60.6885 6.9739C60.8974 6.93144 61.0807 6.89422 61.3357 7.2285C61.1504 7.5546 60.5098 7.84348 59.9328 7.65318ZM58.4193 8.29526C58.2328 7.89734 58.5051 7.69137 59.0299 7.47332L59.8066 8.10854C59.7198 8.5675 58.5803 8.66575 58.4193 8.29526ZM71.0441 10.4931C71.9154 11.1358 73.762 12.8065 74.7659 15.9813C75.0883 16.011 75.4065 16.0593 75.7105 16.1686C75.6908 16.0844 75.6692 16.0005 75.646 15.9163L75.6214 15.8977L75.5904 15.874C75.4072 15.7336 75.3414 15.6832 74.9376 15.6555C74.7282 15.6411 74.673 15.4215 74.8811 15.4358C74.9649 15.4416 75.0378 15.4457 75.1025 15.4493C75.2821 15.4593 75.3998 15.4658 75.5172 15.4965C75.3439 14.9945 75.1206 14.5244 74.9031 14.1742C74.1137 12.8499 72.7838 11.552 71.1009 10.3971C71.046 10.3596 70.9905 10.4532 71.0441 10.4931ZM74.9448 16.2729L74.9232 16.2318C75.1452 16.2794 75.3537 16.3538 75.5622 16.4534C75.7168 16.5272 75.8281 16.6682 75.8794 16.833L75.8804 16.8356C75.7878 16.8056 75.6938 16.7808 75.5993 16.7602C75.3211 16.6992 75.0797 16.5262 74.9448 16.2729ZM75.9032 17.6034C76.0003 17.6432 76.0958 17.6896 76.1894 17.7444L76.1887 17.7423L76.1878 17.7399C76.0945 17.4154 75.8477 17.1588 75.5346 17.0413C75.4607 17.0136 75.3862 16.9891 75.3103 16.9675C75.3442 17.0315 75.3775 17.0945 75.4101 17.1565C75.5172 17.3599 75.6921 17.5169 75.9032 17.6034ZM75.7553 17.9583C75.8443 17.988 75.9376 18.0191 75.9935 18.0545C76.0451 18.0875 76.1952 18.1472 76.2332 18.1224V18.1273C76.231 18.3023 75.8395 18.583 75.765 18.425C75.75 18.3932 75.7188 18.3023 75.6848 18.2031C75.6418 18.0778 75.594 17.9386 75.5681 17.8867C75.6124 17.9107 75.6825 17.934 75.7553 17.9583ZM65.428 16.5676C65.469 16.36 63.9997 16.5356 63.9945 16.8793L65.428 16.5676ZM66.2326 16.9817C66.1918 16.9797 66.0025 17.0151 65.8151 17.0502C65.6339 17.0842 65.4544 17.1178 65.4123 17.117L65.4543 17.3075C65.5107 17.3021 65.7237 17.2566 65.9292 17.2128C66.1157 17.1731 66.2962 17.1346 66.3475 17.1285L66.2326 16.9817ZM65.8778 17.6748C65.821 17.6859 65.7253 17.7187 65.6268 17.7525C65.5172 17.7902 65.4041 17.829 65.3369 17.8404C65.2749 17.851 65.123 17.8519 64.9347 17.8531C64.4264 17.8563 63.6534 17.8611 63.6697 18.0613C63.6732 18.3671 65.0207 18.1936 65.7263 17.9452C65.8372 17.9062 65.9026 17.7908 65.8778 17.6748ZM64.5112 19.2598C64.3838 19.254 64.2647 19.267 64.1772 19.315C63.8752 19.3473 63.6144 19.3235 63.5751 19.2138C63.8268 19.1031 64.4696 19.0284 64.8349 19.0323C64.9114 19.0424 64.9882 19.0503 65.0644 19.0561L65.0628 19.0591C64.9311 19.1417 64.7268 19.2115 64.5112 19.2598ZM64.1375 21.1172C63.6515 21.1753 63.1632 21.2318 62.6727 21.2876C63.181 21.3522 63.7073 21.3552 64.2398 21.3245L64.1375 21.1172ZM65.2202 18.432C65.7107 18.3762 65.8595 18.3586 66.3455 18.3005L66.4478 18.5078C66.3187 18.5152 66.1785 18.5305 66.0407 18.5456C65.6101 18.5926 65.2016 18.6373 65.2202 18.432ZM67.5476 20.874C68.021 20.7951 68.4863 20.7111 68.931 20.6175C69.0293 20.5165 69.1263 20.4112 69.2081 20.3138C68.6517 20.434 68.0853 20.5412 67.5479 20.6323L67.5476 20.874ZM66.5631 20.791C66.6674 20.7757 66.7714 20.7604 66.8751 20.7442V20.9858C66.6935 21.0143 66.5117 21.0425 66.33 21.0708L66.2571 21.0821C65.8814 21.1415 65.5019 21.1967 65.1224 21.2417L65.2192 20.9786C65.6052 20.929 65.9347 20.8833 66.4452 20.8085H66.4533V20.8072L66.5631 20.791ZM63.9701 20.5587C64.3955 20.5844 64.8512 20.4613 65.3266 20.3329C65.731 20.2236 66.1497 20.1104 66.5763 20.0818C66.6741 20.0831 66.7738 20.0779 66.8725 20.0677C67.0007 20.0544 67.0968 19.943 67.0968 19.8128C65.9096 20.1242 64.7078 20.3602 63.5751 20.3426L63.5928 20.5264L63.9701 20.5587ZM65.3966 19.5332C65.4821 19.5353 65.5663 19.5384 65.646 19.5424L65.7618 19.6893C65.6536 19.702 65.5457 19.7135 65.4383 19.7241L65.3966 19.5332ZM66.7584 18.2301C66.8165 18.3646 66.9599 18.4359 67.1022 18.4073C67.2045 18.3867 67.3012 18.373 67.3947 18.3596C67.5424 18.3386 67.6825 18.3187 67.825 18.2749C67.9229 18.2443 67.9705 18.1852 67.9298 18.0823C67.5531 18.0866 67.29 18.1341 66.89 18.2064L66.7584 18.2301ZM64.8122 18.5169C64.9352 18.6272 64.785 18.7238 64.785 18.7238C64.4993 18.7523 63.7074 18.7973 63.6479 18.5971C63.6479 18.5971 63.6662 18.406 64.1542 18.5515C64.1747 18.5518 64.352 18.5419 64.5176 18.5325C64.6603 18.5245 64.7946 18.5169 64.8122 18.5169ZM66.9049 17.0248C67.2408 16.9943 67.6082 16.9609 67.507 16.7189C67.3391 16.8165 67.0213 16.8831 66.6376 16.9376V17.0548C66.7165 17.0419 66.8094 17.0334 66.9049 17.0248ZM66.6619 17.7361C66.545 17.7589 66.4247 17.7269 66.3342 17.6487L66.2848 17.6059C66.8781 17.4704 67.6513 17.3347 68.2888 17.2612C67.9404 17.452 67.243 17.6225 66.6619 17.7361Z" fill="#49FF7C"/>
<path d="M74.0861 7.28744C73.9654 7.17874 74.0351 6.9571 74.1029 6.89344C74.4314 6.58431 74.5481 6.182 74.6644 5.78109C74.7037 5.64562 74.7429 5.51032 74.7903 5.37882C74.8329 5.26063 74.8905 5.14675 74.9481 5.0327C75.0844 4.76281 75.2212 4.49194 75.1627 4.1606C75.1541 4.11296 75.1552 4.06369 75.1563 4.01436C75.1572 3.97817 75.158 3.94195 75.155 3.90631C75.1437 3.7708 75.1315 3.63533 75.1193 3.49987C75.0894 3.16827 75.0595 2.83609 75.0439 2.50366C75.0401 2.4276 75.1456 2.29834 75.2218 2.2794C75.2957 2.26112 75.458 2.3362 75.4751 2.3992C75.5371 2.63175 75.5797 2.8695 75.6206 3.09769L75.6208 3.09874C75.635 3.1777 75.6491 3.25641 75.6636 3.33246C75.6791 3.74059 75.6012 4.18841 75.5239 4.63266C75.4857 4.85173 75.4477 5.07005 75.4212 5.2822C75.3825 5.59067 75.3018 5.8714 75.0617 6.10023C75.0075 6.15196 74.9869 6.23721 74.9658 6.32448C74.951 6.38589 74.9359 6.44831 74.9087 6.50075L74.8762 6.56405C74.7557 6.7984 74.6338 7.03557 74.4734 7.23978C74.4159 7.3129 74.2162 7.38308 74.0861 7.28744Z" fill="#49FF7C"/>
<path d="M72.9781 7.77371C73.1018 7.81143 73.1828 7.70638 73.2429 7.62847C73.2499 7.61941 73.2566 7.61072 73.263 7.60266C73.4118 7.4166 73.5519 7.21911 73.6645 7.00922C73.8503 6.66319 74.027 6.31222 74.2038 5.96122L74.2043 5.96015C74.2763 5.81725 74.3484 5.67407 74.4209 5.53148C74.5165 5.34346 74.5229 5.15805 74.3128 5.06372C74.1144 4.97493 73.9323 5.06796 73.8846 5.27589C73.7624 5.80866 73.4645 6.23725 73.1665 6.66589C73.0373 6.8518 72.9081 7.03773 72.7932 7.23217C72.7325 7.33466 72.7196 7.48874 72.7409 7.60919C72.7483 7.65181 72.8117 7.68427 72.8807 7.7196C72.9137 7.73651 72.948 7.75406 72.9781 7.77371Z" fill="#49FF7C"/>
<path d="M73.3008 2.86408C73.3113 2.80695 73.3218 2.74986 73.3313 2.69287C73.3795 2.40044 73.237 1.86493 73.2027 1.73601C73.1982 1.71912 73.1954 1.70771 73.1954 1.70771C73.1901 1.59979 73.1884 1.49174 73.1867 1.38387L73.1867 1.38276C73.1856 1.31472 73.1845 1.24607 73.1825 1.17825C73.179 1.05551 73.3326 1.03103 73.4265 1.14789C73.5559 1.30882 73.685 1.4766 73.7799 1.66071C73.8057 1.71124 73.7921 1.78246 73.7784 1.85368C73.7721 1.88643 73.7659 1.91918 73.7634 1.94992C73.747 1.95547 73.8489 2.39876 73.9041 2.61812L73.9068 2.62863C73.9384 2.75197 73.9721 2.88405 73.958 3.00656C73.9248 3.29773 73.8783 3.58989 73.8031 3.87192C73.7699 3.99629 73.6963 4.21891 73.5743 4.20944C73.4751 4.21674 73.4282 4.1018 73.3862 3.99893C73.3737 3.96826 73.3616 3.93867 73.3487 3.9137C73.1708 3.56889 73.2359 3.21562 73.3008 2.86408Z" fill="#49FF7C"/>
<path d="M57.4891 2.89714C57.7798 2.66823 58.1315 2.39124 58.2493 2.33231C58.622 2.1456 60.3776 1.44313 60.7642 1.33149C60.9182 1.28704 61.2562 1.21026 61.6275 1.12593C62.1753 1.00153 62.7952 0.860713 63.0032 0.783092C63.0906 0.750123 63.1658 0.564059 63.1655 0.448831C63.1655 0.365919 63.0435 0.236327 62.9525 0.21054C62.7953 0.166146 62.5791 0.117182 62.4591 0.190301C62.1529 0.377151 61.8095 0.421311 61.4671 0.465345C61.1168 0.510393 60.7675 0.555309 60.4602 0.752734C60.1354 0.644511 59.8856 0.793046 59.6301 0.944995C59.4309 1.06345 59.2282 1.18398 58.9838 1.18656C58.6765 1.18982 56.9926 2.67441 56.8316 2.88365C56.7641 2.97146 56.6789 3.16503 56.8045 3.28483C56.9026 3.37712 56.9887 3.29872 57.0629 3.23111C57.0829 3.21288 57.1021 3.19543 57.1204 3.18233C57.1958 3.12809 57.3337 3.01949 57.4891 2.89714Z" fill="#49FF7C"/>
<path d="M58.0012 4.40372C57.8854 4.52086 57.7699 4.63763 57.6842 4.77416L57.5699 4.95553C57.234 5.48789 56.8959 6.0236 56.638 6.59431C56.4479 7.01442 56.3537 7.50373 56.6167 7.97542C56.6693 8.07008 56.7225 8.32306 56.5951 8.36224C56.4556 8.46212 56.2446 8.30903 56.1904 8.2333C55.9222 7.85725 55.7686 7.53017 55.8125 7.05294C55.8484 6.8289 55.9261 6.70491 56.0115 6.5686C56.0526 6.50294 56.0956 6.43441 56.1365 6.35047C56.2118 6.1958 56.2992 6.04992 56.3869 5.90355C56.5327 5.66007 56.6794 5.41525 56.7729 5.12637C56.8674 4.83408 57.1199 4.59176 57.3697 4.35211C57.4619 4.26364 57.5537 4.17552 57.6371 4.0854C57.7329 3.98127 57.8682 3.89901 58.0011 3.85004C58.0107 3.84652 58.0212 3.84239 58.0322 3.83803C58.1211 3.80285 58.2489 3.75223 58.3061 3.8742C58.3467 3.98257 58.2867 4.08572 58.2319 4.15395C58.1612 4.2418 58.0811 4.32285 58.0012 4.40372Z" fill="#49FF7C"/>
<path d="M55.6663 9.50474C55.3839 9.54554 55.1609 9.43619 55.0722 9.10193C55.0132 8.87848 54.9168 8.66476 54.8207 8.45173C54.7912 8.38625 54.7617 8.3208 54.7333 8.25518C54.5881 7.91994 54.6513 7.61669 54.8308 7.31311C54.9104 7.17835 54.9666 7.02879 55.0225 6.88024C55.0346 6.84817 55.0467 6.81612 55.0589 6.7843L55.084 6.71962C55.1842 6.4614 55.2846 6.20274 55.3674 5.93853C55.3981 5.83995 55.3874 5.66074 55.3629 5.62875C55.2464 5.47794 55.0263 5.54649 54.9837 5.60623C54.7762 5.89805 54.5845 6.21012 54.4454 6.53981C54.4056 6.63372 54.4029 6.74921 54.4002 6.86217C54.3969 6.99735 54.3938 7.12891 54.3273 7.21551C53.9885 7.65749 53.8984 8.09425 54.124 8.59891C54.124 8.61817 54.1219 8.63848 54.1198 8.65879C54.1153 8.70248 54.1107 8.74611 54.1272 8.7791L54.1327 8.79003C54.3542 9.23555 54.5758 9.68133 54.8127 10.1184C55.0247 10.5098 55.2926 10.7177 55.683 10.7585C55.9173 10.783 56.2759 10.6867 56.3617 10.5705C56.4663 10.4292 56.4424 10.0544 56.3804 9.96468L56.3511 9.92202C56.1995 9.70046 56.0296 9.45232 55.6663 9.50474Z" fill="#49FF7C"/>
</svg>
